<?xml version="1.0" standalone="no"?><!DOCTYPE svg PUBLIC "-//W3C//DTD SVG 1.1//EN" "http://www.w3.org/Graphics/SVG/1.1/DTD/svg11.dtd"><svg t="1683776709743" class="icon" viewBox="0 0 1024 1024" version="1.1" xmlns="http://www.w3.org/2000/svg" p-id="5068" xmlns:xlink="http://www.w3.org/1999/xlink" width="12" height="12"><path d="M982.848 369.728q0 12.576-14.848 27.424l-207.424 202.272 49.152 285.728q0.576 4 0.576 11.424 0 12-6.016 20.288t-17.44 8.288q-10.848 0-22.848-6.848l-256.576-134.848-256.576 134.848q-12.576 6.848-22.848 6.848-12 0-18.016-8.288t-6.016-20.288q0-3.424 1.152-11.424l49.152-285.728-208-202.272q-14.272-15.424-14.272-27.424 0-21.152 32-26.272l286.848-41.728 128.576-260q10.848-23.424 28-23.424t28 23.424l128.576 260 286.848 41.728q32 5.152 32 26.272z" p-id="5069" fill="#f4ea2a"></path></svg>